# xmcd
#
# Track frame offsets: 
#        150
#        11484
#        22285
#        39964
#        54390
#        72271
#        90919
#        108457
#        123543
#        141183
#        155265
#        172036
#        191543
#        205815
#        221979
#        235494
#        253037
#        265695
#        284741
#        299890
#
# Disc length: 4177 seconds
#
# Revision: 0
# Processed by: cddbd v1.5.2PL0 Copyright (c) Steve Scherf et al.
# Submitted via: ExactAudioCopy v0.99pb5
#
DISCID=38104f14
DTITLE=Brad Vickers and His Vestapolitans - Le Blues Hot
DYEAR=2008
DGENRE=Blues
TTITLE0=Freight Car
TTITLE1=Baby, Please Don't Go
TTITLE2=Dogs Don't Sing
TTITLE3=I Don't Want To
TTITLE4=Hudson's Stomp
TTITLE5=Where Can My Baby Be
TTITLE6=Hesitation Blues
TTITLE7=Up From The Bottom
TTITLE8=Give It Up, Buddy
TTITLE9=Our Real Good Thing (Get's Better Every Day)
TTITLE10=On The Sunny Side Of The Street
TTITLE11=It's Gonna Be Me (There'll Be A Day)
TTITLE12='a' Rag
TTITLE13=Hands Off
TTITLE14=I'm Homesick
TTITLE15=Gonna Quit You
TTITLE16=Woogie On Down
TTITLE17=Mississippi Shadows
TTITLE18=Boogie For Jimmy Reed
TTITLE19=Raisin' Praise
EXTD=
EXTT0=
EXTT1=
EXTT2=
EXTT3=
EXTT4=
EXTT5=
EXTT6=
EXTT7=
EXTT8=
EXTT9=
EXTT10=
EXTT11=
EXTT12=
EXTT13=
EXTT14=
EXTT15=
EXTT16=
EXTT17=
EXTT18=
EXTT19=
PLAYORDER=
